<?xml version="1.0" standalone="no"?>
<!DOCTYPE svg PUBLIC "-//W3C//DTD SVG 20010904//EN"
 "http://www.w3.org/TR/2001/REC-SVG-20010904/DTD/svg10.dtd">
<svg version="1.0" xmlns="http://www.w3.org/2000/svg"
 width="1024.000000pt" height="1024.000000pt" viewBox="0 0 1024.000000 1024.000000"
 preserveAspectRatio="xMidYMid meet">

<g transform="translate(0.000000,1024.000000) scale(0.100000,-0.100000)"
fill="#000000" stroke="none">
<path d="M4920 9239 c-260 -34 -520 -177 -765 -424 -157 -157 -223 -282 -259
-490 -18 -105 -21 -301 -5 -430 18 -145 16 -163 -25 -230 -103 -168 -104 -393
-4 -630 46 -108 99 -183 202 -286 47 -48 86 -95 86 -105 -1 -38 -39 -102 -116
-194 -139 -166 -192 -208 -318 -257 -157 -60 -688 -274 -785 -317 -137 -61
-289 -141 -380 -201 -107 -70 -242 -204 -309 -304 -97 -144 -134 -248 -442
-1236 -89 -286 -179 -556 -199 -600 -21 -44 -63 -120 -94 -168 -172 -266 -231
-509 -183 -760 49 -252 235 -476 472 -569 143 -55 174 -60 434 -67 l245 -7
130 -70 c72 -39 254 -134 406 -212 216 -110 287 -141 330 -147 29 -3 200 -2
379 4 395 13 817 25 1775 51 402 11 966 27 1255 35 289 9 665 19 835 23 305 8
311 8 366 34 68 31 134 88 159 138 23 44 30 78 240 1125 93 462 196 970 230
1130 33 159 61 313 61 342 1 64 -22 109 -71 138 -40 23 154 22 -2990 7 -1407
-7 -1508 -9 -1545 -25 -54 -24 -110 -80 -124 -125 -6 -20 -90 -428 -186 -907
-227 -1128 -370 -1824 -378 -1831 -5 -6 -585 285 -714 358 -64 36 -70 44 -43
58 23 12 110 -20 474 -179 115 -50 211 -90 212 -88 1 1 23 103 49 227 25 124
76 367 111 540 36 173 135 661 220 1084 84 423 159 784 166 803 20 54 73 109
136 140 l57 28 502 3 502 3 39 57 c79 117 106 152 110 147 6 -5 -34 -114 -60
-167 l-18 -38 1220 0 1220 0 -24 63 c-55 147 -200 496 -233 561 -112 222 -269
369 -512 477 -58 25 -274 106 -480 178 -206 73 -383 137 -395 143 -37 19 -66
51 -66 74 0 12 36 94 80 182 246 498 319 748 335 1147 6 157 15 207 59 315 52
130 68 214 73 385 4 135 9 172 30 240 20 62 25 102 26 180 1 122 -22 189 -89
263 -90 101 -176 138 -404 177 -138 23 -193 40 -320 98 -98 44 -273 95 -365
106 -102 12 -230 12 -325 0z m320 -834 c231 -57 333 -68 477 -54 164 17 212
15 258 -9 134 -69 170 -217 142 -577 -11 -139 -13 -206 -5 -250 5 -33 8 -127
5 -210 -6 -166 -28 -272 -106 -500 -138 -401 -266 -652 -405 -790 l-61 -62
-155 -6 c-178 -6 -225 1 -327 49 -172 82 -291 240 -512 682 -109 218 -140 326
-162 570 -19 212 4 369 74 509 25 48 26 55 16 110 -6 32 -9 114 -7 183 3 99 8
135 25 172 26 57 93 131 148 163 151 89 295 94 595 20z m-1159 -825 c71 -74
96 -136 109 -273 14 -139 38 -315 56 -415 16 -89 13 -122 -15 -122 -21 0 -99
49 -127 81 -69 76 -144 235 -169 354 -18 89 -20 216 -3 233 21 21 77 14 103
-13 28 -27 30 -42 14 -129 -15 -82 5 -155 60 -217 21 -24 42 -42 45 -38 3 3
-6 39 -21 80 -21 62 -26 91 -25 178 1 120 -13 166 -64 210 -19 17 -52 35 -74
41 -22 6 -40 15 -40 21 0 33 39 67 80 68 8 1 40 -26 71 -59z m284 -1218 c101
-199 217 -353 391 -522 178 -172 297 -241 452 -260 85 -11 131 -7 220 22 35
11 66 17 69 14 25 -25 -210 -327 -401 -515 -71 -71 -77 -74 -99 -62 -30 16
-453 414 -523 492 -180 199 -260 447 -252 776 3 119 8 151 32 228 l29 90 14
-78 c10 -58 27 -107 68 -185z m-549 -217 c3 -8 1 -72 -5 -142 -19 -219 -36
-792 -24 -804 11 -11 8 -11 288 90 77 28 153 51 170 51 25 0 48 -18 140 -113
l110 -114 90 -27 c146 -45 239 -80 225 -84 -32 -11 -312 39 -360 64 -14 7 -65
53 -115 103 -49 50 -97 91 -106 91 -9 0 -117 -41 -240 -90 -240 -97 -274 -104
-296 -60 -16 31 -17 168 -3 442 13 256 27 393 51 487 26 102 59 149 75 106z
m2069 -144 c40 -78 212 -791 201 -834 -11 -45 -41 -43 -218 8 -233 68 -203 72
-282 -34 -37 -51 -78 -98 -91 -107 -20 -13 -253 -47 -264 -38 -5 4 57 31 154
68 75 28 72 24 180 175 28 39 56 73 64 76 7 3 85 -13 173 -36 88 -22 162 -38
166 -35 3 4 -23 142 -58 309 -74 354 -87 477 -51 477 6 0 17 -13 26 -29z
m-2988 -855 c91 -135 129 -304 140 -611 8 -258 -16 -511 -67 -708 -21 -80 -50
-160 -56 -155 -2 2 3 44 11 93 61 384 71 952 20 1172 -21 91 -69 210 -110 271
-19 30 -35 57 -35 60 1 11 47 -47 97 -122z m-532 -1622 c157 -38 295 -139 295
-215 0 -15 -4 -30 -9 -34 -5 -3 -45 7 -88 22 -71 25 -90 28 -223 28 -123 0
-157 -4 -225 -24 -155 -46 -285 -126 -382 -238 -44 -49 -53 -55 -59 -40 -11
30 14 94 59 150 85 105 257 211 417 257 111 32 105 29 93 41 -6 6 -57 19 -114
28 l-103 17 60 12 c109 22 174 21 279 -4z m2915 -41 c0 -10 -14 -95 -31 -191
-16 -96 -29 -178 -27 -184 3 -8 158 160 179 194 3 5 40 8 81 6 l76 -3 -95
-104 c-58 -65 -93 -111 -90 -120 3 -9 23 -79 46 -157 22 -77 41 -144 41 -147
0 -4 -31 -7 -70 -7 l-69 0 -20 68 c-11 37 -26 88 -33 115 l-14 47 -36 -37
c-31 -32 -39 -49 -50 -113 l-13 -75 -63 -3 c-47 -2 -62 0 -62 10 0 8 27 168
60 357 33 189 60 347 60 352 0 5 29 9 65 9 55 0 65 -3 65 -17z m-380 -185 c65
-33 82 -71 78 -180 -2 -47 -5 -88 -8 -91 -3 -2 -75 -7 -160 -10 -85 -4 -157
-6 -159 -7 -2 0 -1 -25 1 -56 6 -70 24 -89 84 -89 40 0 50 5 73 33 26 30 32
32 89 32 34 0 62 -4 62 -8 0 -4 -13 -29 -30 -55 -68 -108 -255 -141 -349 -61
-75 63 -82 217 -16 351 28 56 48 83 81 106 85 60 178 73 254 35z m1032 17 c3
-3 -3 -29 -12 -58 -17 -51 -18 -52 -62 -57 -55 -7 -92 -30 -114 -72 -9 -17
-27 -95 -40 -172 -35 -207 -24 -186 -100 -186 l-66 0 6 33 c4 17 22 127 41
242 20 116 38 222 41 238 5 26 8 27 70 27 35 0 64 -3 64 -7 0 -5 -5 -26 -10
-48 l-9 -39 26 33 c35 45 81 71 124 71 20 0 38 -2 41 -5z m358 -13 c59 -29 80
-73 79 -161 0 -80 -9 -115 -28 -117 -6 -1 -77 -2 -157 -3 l-146 -1 4 -57 c4
-43 10 -61 28 -75 35 -28 86 -23 122 12 27 27 36 30 94 30 l64 0 -20 -39 c-64
-127 -269 -163 -372 -64 -54 52 -61 180 -17 299 27 72 106 158 164 179 56 20
143 19 185 -3z m571 -11 c16 -16 29 -40 29 -52 0 -22 3 -20 38 15 20 22 51 45
69 52 38 17 107 18 134 4 28 -16 49 -63 49 -115 0 -37 -35 -272 -56 -377 -5
-27 -8 -28 -70 -28 -35 0 -64 3 -64 8 0 4 11 72 25 152 41 242 32 290 -49 256
-52 -22 -81 -92 -109 -266 l-23 -145 -68 -3 -68 -3 6 28 c3 15 17 100 31 187
20 132 22 164 12 185 -17 35 -48 37 -86 5 -43 -36 -58 -77 -82 -224 -32 -201
-20 -180 -95 -180 -35 0 -64 3 -64 8 0 4 18 121 41 260 l42 252 68 0 68 0 -15
-42 -15 -43 33 32 c47 46 86 63 141 63 40 0 54 -5 78 -29z m754 15 c77 -33 90
-102 55 -305 -10 -64 -20 -135 -22 -158 l-2 -43 -63 0 -63 0 0 30 0 31 -40
-32 c-50 -40 -137 -52 -188 -25 -59 30 -78 108 -47 183 33 79 88 110 221 126
l94 11 0 41 c0 48 -13 65 -52 65 -33 0 -88 -25 -88 -40 0 -6 -29 -10 -65 -10
-47 0 -65 4 -65 13 0 27 70 95 113 110 55 20 168 21 212 3z m-5087 -181 c26
-8 85 -37 132 -65 178 -106 337 -148 583 -157 121 -4 157 -9 157 -19 0 -31
-143 -680 -152 -691 -16 -19 -69 -15 -106 7 -18 11 -56 38 -84 61 -93 73 -99
75 -187 45 -148 -49 -261 -57 -434 -31 -110 16 -268 66 -379 119 -40 19 -74
34 -75 33 -9 -10 41 -77 81 -109 28 -22 52 -44 54 -49 5 -12 -65 -39 -100 -39
-44 0 -121 77 -164 166 -66 132 -57 289 23 434 77 139 252 271 406 305 70 16
171 12 245 -10z"/>
<path d="M4770 7686 c-70 -15 -117 -40 -125 -67 -9 -29 -4 -31 46 -20 57 14
226 14 309 1 36 -6 113 -25 172 -42 89 -26 112 -29 133 -20 59 27 8 85 -106
120 -133 41 -318 53 -429 28z"/>
<path d="M5765 7646 c-170 -32 -205 -77 -205 -261 0 -103 19 -240 55 -401 32
-142 33 -194 3 -221 -23 -21 -114 -53 -153 -53 -11 0 -56 22 -99 49 -43 28
-91 53 -106 56 -39 9 -78 -10 -86 -41 -9 -35 13 -52 78 -60 53 -7 96 -34 84
-52 -4 -7 -46 -23 -94 -38 -219 -66 -358 -172 -328 -250 11 -28 84 -12 203 44
143 67 256 99 299 83 18 -7 50 -9 72 -5 31 5 59 -1 126 -26 47 -18 103 -33
124 -34 36 -1 37 0 40 40 3 36 -1 45 -29 68 -18 15 -68 46 -112 68 l-81 40 55
27 c31 15 59 37 66 51 19 37 16 126 -8 242 -29 144 -37 366 -15 441 25 85 63
119 166 147 47 12 124 25 173 28 93 5 104 13 66 48 -17 16 -39 19 -123 21 -55
1 -132 -4 -171 -11z"/>
<path d="M4905 7511 c-68 -17 -140 -74 -133 -106 2 -13 12 -10 53 19 l50 36 6
-30 c13 -60 68 -91 137 -75 36 8 82 50 82 76 0 24 3 24 50 -6 48 -30 50 -30
50 -5 0 58 -189 116 -295 91z"/>
<path d="M5783 7481 c-38 -18 -73 -61 -73 -90 0 -17 85 -61 119 -61 18 0 48 7
67 16 33 16 40 29 46 83 l3 25 37 -33 c32 -28 39 -30 44 -16 9 23 -41 73 -85
85 -55 15 -111 12 -158 -9z m35 -43 c-2 -12 -9 -23 -15 -26 -19 -6 -29 28 -12
39 23 14 31 10 27 -13z"/>
<path d="M5256 6420 c-57 -10 -100 -38 -104 -68 -4 -28 36 -35 136 -23 45 6
139 8 209 4 110 -5 130 -4 141 10 19 22 1 52 -39 66 -42 14 -282 22 -343 11z"/>
<path d="M5243 6223 c-7 -2 -13 -14 -13 -24 0 -28 72 -59 135 -58 94 0 197 53
155 79 -15 10 -255 13 -277 3z"/>
<path d="M4750 3212 c-30 -14 -79 -80 -80 -104 0 -5 41 -8 90 -8 86 0 90 1 92
23 3 47 -4 73 -24 90 -25 21 -34 21 -78 -1z"/>
<path d="M6116 3200 c-19 -17 -39 -44 -45 -60 l-10 -30 88 0 c86 0 89 1 95 25
22 86 -58 126 -128 65z"/>
<path d="M7478 3035 c-71 -14 -108 -45 -108 -91 0 -17 7 -37 15 -44 20 -17 91
-7 116 16 22 20 43 80 37 110 -3 20 -6 20 -60 9z"/>
</g>
</svg>
